# xmcd
#
# Track frame offsets:
#	150
#	3246
#	6844
#	14250
#	20103
#	27028
#	28902
#	30437
#	34504
#	44794
#	53714
#	66693
#	72594
#	79503
#	86657
#	91872
#	94860
#	105324
#	112680
#	120710
#	127780
#	134162
#	142074
#	158166
#	169126
#	173584
#	177873
#	185125
#	191949
#	197201
#	200122
#	205665
#	216358
#	219745
#	226011
#	235742
#	246537
#	256561
#	262778
#	267416
#	278125
#	284792
#	289996
#	296141
#	299975
#	302731
#	309250
#
# Disc length: 4373 seconds
#
# Revision: 0
# Processed by: cddbd v1.5.1PL2 Copyright (c) Steve Scherf et al.
# Submitted via: dBpowerAMP V4.0
#
DISCID=ca11132f
DTITLE=K-Delight - UKHH.com presents CTRL: ALT: THE BEAT
DYEAR=2006
DGENRE=
TTITLE0=The Great UK Treasure Hunt
TTITLE1=K-Delight's Welcome
TTITLE2=Hijackin The Beats - K-Delight and Koaste
TTITLE3=Style Of The Street - Broketn Class (Street Sounds)
TTITLE4=Swift Sucker - Caveman (Profile)
TTITLE5=Killing Season (Accapella) - Gunshot (Vinyl Solution)
TTITLE6=The Bambi Murders (Killa Beats) - Killa Instinct (Music of Life)
TTITLE7=Ain't It Wild - Transcript Carriers (Undivided Attention)
TTITLE8=My Genre - Aspects (Hombre)
TTITLE9=Out There - Doc Brown (Janomi)
TTITLE10=Casa Forte - Lewis Parker (Melankolic)
TTITLE11=Letcha' Self Go - Kamanchi Sly (Catalyst)
TTITLE12=Nothing Remains - Sir Beans OBE feat Numskullz (Hombre)
TTITLE13=Original Guidance - Demon Boyz (Tribal Bass)
TTITLE14=How's Life In London (Remix) - London Posse (Bullet)
TTITLE15=The Unknown - Mark B And Blade (Wordplay)
TTITLE16=Trials Of Life - Guttersnypes (Liberty Grooves)
TTITLE17=Raw Uncut - Roots Manuva (Anti Static Recordings)
TTITLE18=The Wiccaman Theory - Chester P (Lowlife Records)
TTITLE19=Write A Song For Me (Last Skeptik Remix) - Conspicuous feat Shameless (Ottomanelfmusic)
TTITLE20=All Worked Out - DPF (Son Records)
TTITLE21=Let's Get High - Dirty Diggers (Zebra Traffic)
TTITLE22=Hit Me - The Menagerie (Esperanto)
TTITLE23=Swindleberrybush - HP (Janomi)
TTITLE24=Adventures In New Bohemia - Jehst (Lowlife Records)
TTITLE25=Revenge Of The Tramps - Optimus Prime feat Jnr Disprol (Dial Up Records)
TTITLE26=Hush - MC and Marco (MSG)
TTITLE27=Seen To Be Believed - Swampfoot (Swampfoot)
TTITLE28=Lock 'n' Load - Dom G (Dom Recordings)
TTITLE29=Capkon Entertainment - Cappo and Konny Kon (Skullsnap Records)
TTITLE30=What They Talking About - Krispy (Skullsnap Records)
TTITLE31=CEO (FBC Fabric Remix) - Big Dada Allstars (Big Dada)
TTITLE32=Focus On The Main Features - Rob Life feat Cappo and DPF (Breakin Bread)
TTITLE33=Changing Times - Giacomo (Canteen Records)
TTITLE34=What The ?? - Deftex (Son Records)
TTITLE35=Outrageously Lyrical - BC400 (Buttercuts Records)
TTITLE36=Them Or Us - Blaktrix (Tissimo)
TTITLE37=Round Here - Genesis Elijah (Broken Souls)
TTITLE38=My Time - Humurak D Gritty (SFDB)
TTITLE39=Great White Shark - Jibbarish (BOI)
TTITLE40=My World - Universal Soldiers (Tonguetied Records)
TTITLE41=The Cavalry - Evil Ed feat Tommy Evans, Ricochet, Yungun, Jibbarish, Doc Brown, Diablo (Janomi)
TTITLE42=Happy Shottas (Gotta Have That) - BluFoot feat Riot AKA Rio-T (Scenario Records)
TTITLE43=Don't Interrupt - Jabba The Kut feat Dubbledge (Cut Above Records)
TTITLE44=If You Don't Love - Gumbo Ya Ya (Humble Monkey)
TTITLE45=If I Should Die - Dazzlin' D.O. (Monster Works)
TTITLE46=Coke (The Real Thing) - K-Delight and The Voodoo Guru feat DJ Kentaro (Playing Around)
EXTD=UKHH.com - You Didn't Know?
EXTT0=
EXTT1=
EXTT2=
EXTT3=
EXTT4=
EXTT5=
EXTT6=
EXTT7=
EXTT8=
EXTT9=
EXTT10=
EXTT11=
EXTT12=
EXTT13=
EXTT14=
EXTT15=
EXTT16=
EXTT17=
EXTT18=
EXTT19=
EXTT20=
EXTT21=
EXTT22=
EXTT23=
EXTT24=
EXTT25=
EXTT26=
EXTT27=
EXTT28=
EXTT29=
EXTT30=
EXTT31=
EXTT32=
EXTT33=
EXTT34=
EXTT35=
EXTT36=
EXTT37=
EXTT38=
EXTT39=
EXTT40=
EXTT41=
EXTT42=
EXTT43=
EXTT44=
EXTT45=
EXTT46=
PLAYORDER=
